<svg width="35" height="25" viewBox="0 0 35 25" fill="none" xmlns="http://www.w3.org/2000/svg">
<path fill-rule="evenodd" clip-rule="evenodd" d="M31.1738 0.746707C32.6806 1.15828 33.8649 2.36654 34.2682 3.90405C34.9971 6.68802 35 12.5 35 12.5C35 12.5 35 18.312 34.2682 21.096C33.8649 22.6335 32.6806 23.8417 31.1738 24.2533C28.4455 25 17.4999 25 17.4999 25C17.4999 25 6.55457 25 3.82613 24.2533C2.31931 23.8417 1.13517 22.6335 0.731807 21.096C0 18.312 0 12.5 0 12.5C0 12.5 0 6.68802 0.731807 3.90405C1.13517 2.36654 2.31931 1.15828 3.82613 0.746707C6.55457 0 17.4999 0 17.4999 0C17.4999 0 28.4455 0 31.1738 0.746707ZM23.4634 12.4015L14.1119 17.8002V7.00278L23.4634 12.4015Z" fill="#171612"/>
</svg>
